<?xml version="1.0" encoding="UTF-8"?>
<svg id="Layer_2" data-name="Layer 2" xmlns="http://www.w3.org/2000/svg" viewBox="0 0 378.37 101.56">
  <defs>
    <style>
      .cls-1 {
        fill: #fbaf3b;
      }

      .cls-2 {
        fill: #cc1705;
      }

      .cls-3 {
        fill: #e06500;
      }

      .cls-text {
        fill: #ffffff;
      }
    </style>
  </defs>
  <g id="Layer_1-2" data-name="Layer 1">
    <g>
      <g>
        <path class="cls-1" d="M78.79,54.61c-12.64-.06-28.24-.12-28.24-.12v19.87c0,14.16,10.61,25.65,23.7,25.65h35.76l-8.82-25.94c-4.02-11.81-12.76-19.4-22.4-19.45Z"/>
        <path class="cls-3" d="M50.54,0h23.68c18.96,0,30.76,10.33,30.76,28.26,0,14.27-8.72,26.23-30.76,26.23l-23.68,.21V0Z"/>
        <path class="cls-2" d="M50.54,0V66.71c0,20.52-9.54,33.29-26.11,33.29C11.24,100,.2,90.56,.2,66.71L0,0H50.54Z"/>
      </g>
      <g>
        <path class="cls-text" d="M127.68,32.21V11h5.51v21.02c0,6.14,3.56,9.27,8.14,9.27s8.19-3.12,8.19-9.27V11h5.46v21.21c0,8.83-5.95,13.7-13.65,13.7s-13.65-4.88-13.65-13.7Z"/>
        <path class="cls-text" d="M159.87,18.31h5.17v4.44h.1c1.32-2.73,2.88-4.44,6.78-4.44h2.63v4.44h-3.46c-4.1,0-5.95,2.34-5.95,7.12v15.26h-5.27V18.31Z"/>
        <path class="cls-text" d="M182.01,39.92h-.1c.05,1.02,.05,1.9,.05,2.93v2.29h-5.22V7.05h5.27v13.65c0,.98,0,1.8-.1,2.83h.1c1.66-3.76,5.22-6,9.51-6,6.29,0,12.24,4.88,12.24,14.19s-5.95,14.19-12.24,14.19c-4.29,0-7.85-2.24-9.51-6Zm8.05,1.66c4.93,0,8.14-3.95,8.14-9.85s-3.22-9.85-8.14-9.85-8.1,3.95-8.1,9.85,3.22,9.85,8.1,9.85Z"/>
        <path class="cls-text" d="M214.98,45.91c-5.17,0-9.22-2.93-9.22-8.53,0-6.1,4.88-8.44,10.19-8.44h4.29c2.68,0,3.95-1.12,3.95-3.07,0-2.68-2.44-4-5.56-4-3.71,0-6.19,1.85-6.44,5.12h-5.41c.39-5.75,4.15-9.46,11.8-9.46s10.88,3.9,10.88,9.22v12.19c0,1.27,.49,1.76,1.76,1.76h1.12v4.44h-3.51c-2.78,0-4.39-1.51-4.39-4v-1.27h-.1c-1.71,4.1-5.17,6.05-9.36,6.05Zm1.37-4.39c4.05,0,7.85-2.63,7.85-8.53v-2.78h-.1c-.88,1.85-2.49,2.73-5.51,2.78l-2.1,.05c-3.71,.05-5.17,1.95-5.17,4.24s1.46,4.24,5.02,4.24Z"/>
        <path class="cls-text" d="M235.32,18.31h5.17v4.58h.1c1.66-3.36,4.68-5.36,8.58-5.36,5.56,0,9.07,3.9,9.07,11.17v16.43h-5.27v-15.9c0-5.22-2.29-7.27-5.56-7.27-3.46,0-6.83,2.29-6.83,8.24v14.92h-5.27V18.31Z"/>
        <path class="cls-text" d="M273.66,11h12.97c9.56,0,16.68,6.14,16.68,17.07s-7.12,17.07-16.68,17.07h-12.97V11Zm12.68,29.5c6.53,0,11.17-4.19,11.17-12.44s-4.63-12.44-11.17-12.44h-7.17v24.87h7.17Z"/>
        <path class="cls-text" d="M314.92,45.91c-5.17,0-9.22-2.93-9.22-8.53,0-6.1,4.88-8.44,10.19-8.44h4.29c2.68,0,3.95-1.12,3.95-3.07,0-2.68-2.44-4-5.56-4-3.71,0-6.19,1.85-6.44,5.12h-5.41c.39-5.75,4.15-9.46,11.8-9.46s10.88,3.9,10.88,9.22v12.19c0,1.27,.49,1.76,1.76,1.76h1.12v4.44h-3.51c-2.78,0-4.39-1.51-4.39-4v-1.27h-.1c-1.71,4.1-5.17,6.05-9.36,6.05Zm1.37-4.39c4.05,0,7.85-2.63,7.85-8.53v-2.78h-.1c-.88,1.85-2.49,2.73-5.51,2.78l-2.1,.05c-3.71,.05-5.17,1.95-5.17,4.24s1.46,4.24,5.02,4.24Z"/>
        <path class="cls-text" d="M336.67,37.96v-15.22h-5.27v-4.44h5.27v-7.32h5.27v7.32h8.34v4.44h-8.34v14.78c0,2.29,1.17,3.17,3.22,3.17h5.32v4.44h-6.58c-4.73,0-7.22-2.39-7.22-7.17Z"/>
        <path class="cls-text" d="M361.01,45.91c-5.17,0-9.22-2.93-9.22-8.53,0-6.1,4.88-8.44,10.19-8.44h4.29c2.68,0,3.95-1.12,3.95-3.07,0-2.68-2.44-4-5.56-4-3.71,0-6.19,1.85-6.44,5.12h-5.41c.39-5.75,4.15-9.46,11.8-9.46s10.88,3.9,10.88,9.22v12.19c0,1.27,.49,1.76,1.76,1.76h1.12v4.44h-3.51c-2.78,0-4.39-1.51-4.39-4v-1.27h-.1c-1.71,4.1-5.17,6.05-9.36,6.05Zm1.37-4.39c4.05,0,7.85-2.63,7.85-8.53v-2.78h-.1c-.88,1.85-2.49,2.73-5.51,2.78l-2.1,.05c-3.71,.05-5.17,1.95-5.17,4.24s1.46,4.24,5.02,4.24Z"/>
        <path class="cls-text" d="M127.68,57.67h13.75c7.8,0,12.24,3.76,12.24,9.31,0,4.44-2.78,7.66-7.8,8.63v.1c4.1,1.56,5.66,4.63,6.88,9.02l1.95,7.07h-5.66l-1.56-5.95c-1.56-6.19-3.32-7.75-8.83-7.75h-5.46v13.7h-5.51V57.67Zm11.41,15.85c5.85,0,8.88-2.05,8.88-5.85,0-3.36-2.44-5.36-7.07-5.36h-7.71v11.22h5.9Z"/>
        <path class="cls-text" d="M155.67,78.39c0-8.78,5.41-14.19,13.17-14.19,7.32,0,12.83,4.68,12.83,12.97v2.83h-20.38c.24,4.78,3.07,8.24,7.66,8.24,3.36,0,5.9-1.8,6.88-4.68h5.56c-1.17,5.32-5.95,9.02-12.48,9.02-7.9,0-13.22-5.46-13.22-14.19Zm20.58-2.49c0-4.34-2.68-7.36-7.27-7.36s-7.17,3.22-7.66,7.36h14.92Z"/>
        <path class="cls-text" d="M183.57,82.93h5.46c.15,3.71,2.54,5.32,6,5.32s5.61-1.71,5.61-4.39c0-2.19-1.41-3.61-4.88-3.61h-2.93c-5.56,0-8.78-3.02-8.78-7.51,0-4.93,3.95-8.53,10.68-8.53s10.73,3.8,10.97,9.46h-5.41c-.15-3.27-2-5.12-5.51-5.12-3.22,0-5.22,1.51-5.22,3.95,0,2.24,1.61,3.27,4.24,3.27h3.17c6.24,0,9.22,3.51,9.22,7.95,0,5.17-4.1,8.88-11.17,8.88s-11.22-3.76-11.46-9.66Z"/>
        <path class="cls-text" d="M209.76,64.98h5.27v2.39c0,.98,0,1.8-.1,2.83h.1c1.66-3.76,5.22-6,9.51-6,6.29,0,12.24,4.88,12.24,14.19s-5.95,14.19-12.24,14.19c-4.29,0-7.85-2.24-9.51-6h-.1c.1,1.02,.1,1.9,.1,2.93v12.05h-5.27v-36.58Zm13.31,23.26c4.93,0,8.14-3.95,8.14-9.85s-3.22-9.85-8.14-9.85-8.1,3.95-8.1,9.85,3.22,9.85,8.1,9.85Z"/>
        <path class="cls-text" d="M239.07,78.39c0-9.12,5.95-14.19,13.46-14.19s13.46,5.07,13.46,14.19-6,14.19-13.46,14.19-13.46-5.07-13.46-14.19Zm13.46,9.85c4.54,0,7.9-3.36,7.9-9.85s-3.36-9.85-7.9-9.85-7.9,3.36-7.9,9.85,3.36,9.85,7.9,9.85Z"/>
        <path class="cls-text" d="M269.51,64.98h5.17v4.58h.1c1.66-3.36,4.68-5.36,8.58-5.36,5.56,0,9.07,3.9,9.07,11.17v16.43h-5.27v-15.9c0-5.22-2.29-7.27-5.56-7.27-3.46,0-6.83,2.29-6.83,8.24v14.92h-5.27v-26.82Z"/>
        <path class="cls-text" d="M295.7,82.93h5.46c.15,3.71,2.54,5.32,6,5.32s5.61-1.71,5.61-4.39c0-2.19-1.41-3.61-4.88-3.61h-2.93c-5.56,0-8.78-3.02-8.78-7.51,0-4.93,3.95-8.53,10.68-8.53s10.73,3.8,10.97,9.46h-5.41c-.15-3.27-2-5.12-5.51-5.12-3.22,0-5.22,1.51-5.22,3.95,0,2.24,1.61,3.27,4.24,3.27h3.17c6.24,0,9.22,3.51,9.22,7.95,0,5.17-4.1,8.88-11.17,8.88s-11.22-3.76-11.46-9.66Z"/>
        <path class="cls-text" d="M320.33,78.39c0-8.78,5.41-14.19,13.17-14.19,7.31,0,12.83,4.68,12.83,12.97v2.83h-20.38c.24,4.78,3.07,8.24,7.66,8.24,3.36,0,5.9-1.8,6.88-4.68h5.56c-1.17,5.32-5.95,9.02-12.48,9.02-7.9,0-13.22-5.46-13.22-14.19Zm20.58-2.49c0-4.34-2.68-7.36-7.27-7.36s-7.17,3.22-7.66,7.36h14.92Z"/>
      </g>
    </g>
  </g>
</svg>
