<svg width="179" height="48" viewBox="0 0 179 48" fill="none" xmlns="http://www.w3.org/2000/svg">
<g clip-path="url(#clip0_410_1390)">
<path d="M37.2741 25.8101C31.2944 25.7818 23.9143 25.7534 23.9143 25.7534V35.1445C23.9143 41.8369 28.9337 47.2674 35.1263 47.2674H52.0438L47.8712 35.0075C45.9694 29.4257 41.8347 25.8385 37.2741 25.8149V25.8101Z" fill="#FBAF3B"/>
<path d="M23.9097 0H35.1122C44.0819 0 49.6642 4.88224 49.6642 13.3564C49.6642 20.1008 45.539 25.7534 35.1122 25.7534L23.9097 25.8527V0Z" fill="#E06500"/>
<path d="M23.9096 0V31.5289C23.9096 41.2273 19.3964 47.2627 11.5574 47.2627C5.31744 47.2627 0.0946164 42.8011 0.0946164 31.5289L0 0H23.9096Z" fill="#CC1705"/>
<path d="M60.4031 15.2234V5.19897H63.0098V15.1336C63.0098 18.0355 64.6939 19.5148 66.8606 19.5148C69.0274 19.5148 70.7352 18.0403 70.7352 15.1336V5.19897H73.3182V15.2234C73.3182 19.3967 70.5034 21.6984 66.8606 21.6984C63.2179 21.6984 60.4031 19.392 60.4031 15.2234Z" fill="#1E1E1E"/>
<path d="M75.6316 8.65381H78.0774V10.7523H78.1247C78.7492 9.462 79.4872 8.65381 81.3322 8.65381H82.5764V10.7523H80.9396C78.9999 10.7523 78.1247 11.8582 78.1247 14.1174V21.3297H75.6316V8.65381Z" fill="#1E1E1E"/>
<path d="M86.1057 18.8673H86.0584C86.082 19.3494 86.082 19.7653 86.082 20.2521V21.3344H83.6125V3.33203H86.1057V9.78339C86.1057 10.2466 86.1057 10.6341 86.0584 11.1209H86.1057C86.891 9.34385 88.5752 8.28516 90.6047 8.28516C93.5804 8.28516 96.3952 10.5916 96.3952 14.9917C96.3952 19.3919 93.5804 21.6983 90.6047 21.6983C88.5752 21.6983 86.891 20.6396 86.1057 18.8626V18.8673ZM89.914 19.6518C92.2463 19.6518 93.7649 17.785 93.7649 14.9965C93.7649 12.208 92.2416 10.3411 89.914 10.3411C87.5864 10.3411 86.082 12.208 86.082 14.9965C86.082 17.785 87.6054 19.6518 89.914 19.6518Z" fill="#1E1E1E"/>
<path d="M101.703 21.6983C99.2573 21.6983 97.3413 20.3135 97.3413 17.6668C97.3413 14.7838 99.6499 13.6778 102.162 13.6778H104.192C105.459 13.6778 106.06 13.1485 106.06 12.2269C106.06 10.9602 104.906 10.3364 103.43 10.3364C101.675 10.3364 100.501 11.2107 100.383 12.7562H97.8239C98.0084 10.0386 99.7871 8.28516 103.406 8.28516C107.025 8.28516 108.553 10.1284 108.553 12.6428V18.4041C108.553 19.0043 108.785 19.2359 109.386 19.2359H109.916V21.3344H108.255C106.94 21.3344 106.178 20.6207 106.178 19.4439V18.8436H106.131C105.322 20.7814 103.685 21.703 101.703 21.703V21.6983ZM102.351 19.6235C104.267 19.6235 106.065 18.3805 106.065 15.592V14.2781H106.018C105.601 15.1524 104.84 15.5683 103.411 15.592L102.417 15.6156C100.662 15.6392 99.9717 16.5372 99.9717 17.6195C99.9717 18.7019 100.662 19.6235 102.347 19.6235H102.351Z" fill="#1E1E1E"/>
<path d="M111.326 8.6538H113.771V10.8184H113.819C114.604 9.23041 116.033 8.28516 117.878 8.28516C120.508 8.28516 122.169 10.1284 122.169 13.5644V21.3297H119.675V13.8149C119.675 11.3478 118.592 10.3789 117.045 10.3789C115.408 10.3789 113.814 11.4612 113.814 14.2733V21.3249H111.321V8.6538H111.326Z" fill="#1E1E1E"/>
<path d="M129.464 5.19897H135.599C140.122 5.19897 143.49 8.1009 143.49 13.2667C143.49 18.4325 140.122 21.3345 135.599 21.3345H129.464V5.19897ZM135.462 19.1415C138.552 19.1415 140.747 17.1612 140.747 13.262C140.747 9.36282 138.556 7.38251 135.462 7.38251H132.07V19.1367H135.462V19.1415Z" fill="#1E1E1E"/>
<path d="M148.983 21.6983C146.537 21.6983 144.621 20.3135 144.621 17.6668C144.621 14.7838 146.93 13.6778 149.442 13.6778H151.471C152.739 13.6778 153.34 13.1485 153.34 12.2269C153.34 10.9602 152.186 10.3364 150.71 10.3364C148.955 10.3364 147.781 11.2107 147.663 12.7562H145.104C145.288 10.0386 147.067 8.28516 150.686 8.28516C154.305 8.28516 155.833 10.1284 155.833 12.6428V18.4041C155.833 19.0043 156.065 19.2359 156.666 19.2359H157.196V21.3344H155.535C154.22 21.3344 153.458 20.6207 153.458 19.4439V18.8436H153.411C152.602 20.7814 150.965 21.703 148.983 21.703V21.6983ZM149.631 19.6235C151.547 19.6235 153.345 18.3805 153.345 15.592V14.2781H153.297C152.881 15.1524 152.119 15.5683 150.691 15.592L149.697 15.6156C147.942 15.6392 147.251 16.5372 147.251 17.6195C147.251 18.7019 147.942 19.6235 149.626 19.6235H149.631Z" fill="#1E1E1E"/>
<path d="M159.272 17.9409V10.7475H156.779V8.64908H159.272V5.18945H161.766V8.64908H165.711V10.7475H161.766V17.733C161.766 18.8153 162.319 19.2312 163.289 19.2312H165.806V21.3297H162.693C160.455 21.3297 159.277 20.2001 159.277 17.9409H159.272Z" fill="#1E1E1E"/>
<path d="M170.787 21.6983C168.342 21.6983 166.426 20.3135 166.426 17.6668C166.426 14.7838 168.734 13.6778 171.246 13.6778H173.276C174.544 13.6778 175.144 13.1485 175.144 12.2269C175.144 10.9602 173.99 10.3364 172.514 10.3364C170.759 10.3364 169.586 11.2107 169.467 12.7562H166.908C167.093 10.0386 168.871 8.28516 172.49 8.28516C176.11 8.28516 177.638 10.1284 177.638 12.6428V18.4041C177.638 19.0043 177.869 19.2359 178.47 19.2359H179V21.3344H177.34C176.024 21.3344 175.263 20.6207 175.263 19.4439V18.8436H175.215C174.406 20.7814 172.77 21.703 170.787 21.703V21.6983ZM171.435 19.6235C173.351 19.6235 175.149 18.3805 175.149 15.592V14.2781H175.102C174.686 15.1524 173.924 15.5683 172.495 15.592L171.502 15.6156C169.747 15.6392 169.056 16.5372 169.056 17.6195C169.056 18.7019 169.747 19.6235 171.431 19.6235H171.435Z" fill="#1E1E1E"/>
<path d="M60.4031 27.2563H66.9079C70.598 27.2563 72.6985 29.0334 72.6985 31.6565C72.6985 33.755 71.3833 35.2768 69.0084 35.7353V35.7825C70.9481 36.5198 71.6861 37.9708 72.2632 40.0456L73.1857 43.3871H70.5081L69.7701 40.575C69.0321 37.6494 68.1995 36.9121 65.5928 36.9121H63.0098V43.3871H60.4031V27.2563ZM65.8009 34.7475C68.5685 34.7475 70.0019 33.7786 70.0019 31.9826C70.0019 30.3946 68.8476 29.4493 66.6572 29.4493H63.0098V34.7522H65.8009V34.7475Z" fill="#1E1E1E"/>
<path d="M73.6445 37.0494C73.6445 32.8997 76.2039 30.3428 79.875 30.3428C83.338 30.3428 85.9447 32.5547 85.9447 36.4727V37.8103H76.3032C76.4168 40.0694 77.7556 41.7047 79.9271 41.7047C81.5166 41.7047 82.7182 40.854 83.1819 39.4928H85.8122C85.2587 42.0072 82.9974 43.7559 79.9081 43.7559C76.1708 43.7559 73.654 41.1754 73.654 37.0494H73.6445ZM83.3806 35.8725C83.3806 33.8213 82.1127 32.394 79.9413 32.394C77.7698 32.394 76.5493 33.9158 76.3174 35.8725H83.3758H83.3806Z" fill="#1E1E1E"/>
<path d="M86.8436 39.195H89.4266C89.4976 40.9484 90.6283 41.7094 92.2651 41.7094C93.902 41.7094 94.9191 40.9012 94.9191 39.6345C94.9191 38.5995 94.2521 37.9284 92.6105 37.9284H91.2243C88.594 37.9284 87.0707 36.501 87.0707 34.3789C87.0707 32.0489 88.9394 30.3474 92.1232 30.3474C95.307 30.3474 97.1994 32.1434 97.3129 34.8185H94.7535C94.6826 33.273 93.8074 32.3986 92.1468 32.3986C90.6235 32.3986 89.6774 33.1123 89.6774 34.2655C89.6774 35.3242 90.439 35.811 91.6832 35.811H93.1829C96.1349 35.811 97.5447 37.4699 97.5447 39.5684C97.5447 42.0118 95.6051 43.7653 92.2604 43.7653C88.9157 43.7653 86.9524 41.9882 86.8389 39.1997L86.8436 39.195Z" fill="#1E1E1E"/>
<path d="M99.2336 30.7114H101.727V31.841C101.727 32.3042 101.727 32.6917 101.679 33.1785H101.727C102.512 31.4015 104.196 30.3428 106.226 30.3428C109.201 30.3428 112.016 32.6492 112.016 37.0494C112.016 41.4495 109.201 43.7559 106.226 43.7559C104.196 43.7559 102.512 42.6972 101.727 40.9202H101.679C101.727 41.4022 101.727 41.8182 101.727 42.305V48.0001H99.2336V30.7114ZM105.53 41.7047C107.863 41.7047 109.381 39.8379 109.381 37.0494C109.381 34.2609 107.858 32.394 105.53 32.394C103.203 32.394 101.698 34.2609 101.698 37.0494C101.698 39.8379 103.222 41.7047 105.53 41.7047Z" fill="#1E1E1E"/>
<path d="M113.1 37.0494C113.1 32.739 115.914 30.3428 119.467 30.3428C123.02 30.3428 125.835 32.739 125.835 37.0494C125.835 41.3597 122.996 43.7559 119.467 43.7559C115.938 43.7559 113.1 41.3597 113.1 37.0494ZM119.467 41.7047C121.615 41.7047 123.205 40.1167 123.205 37.0494C123.205 33.982 121.615 32.394 119.467 32.394C117.319 32.394 115.73 33.982 115.73 37.0494C115.73 40.1167 117.319 41.7047 119.467 41.7047Z" fill="#1E1E1E"/>
<path d="M127.5 30.7114H129.946V32.8761H129.993C130.779 31.288 132.207 30.3428 134.053 30.3428C136.683 30.3428 138.343 32.186 138.343 35.622V43.3873H135.85V35.8725C135.85 33.4054 134.767 32.4365 133.22 32.4365C131.583 32.4365 129.989 33.5188 129.989 36.331V43.3826H127.496V30.7067L127.5 30.7114Z" fill="#1E1E1E"/>
<path d="M139.89 39.195H142.473C142.544 40.9484 143.675 41.7094 145.312 41.7094C146.949 41.7094 147.966 40.9012 147.966 39.6345C147.966 38.5995 147.299 37.9284 145.657 37.9284H144.271C141.641 37.9284 140.117 36.501 140.117 34.3789C140.117 32.0489 141.986 30.3474 145.17 30.3474C148.354 30.3474 150.246 32.1434 150.36 34.8185H147.8C147.729 33.273 146.854 32.3986 145.193 32.3986C143.67 32.3986 142.724 33.1123 142.724 34.2655C142.724 35.3242 143.486 35.811 144.73 35.811H146.23C149.182 35.811 150.591 37.4699 150.591 39.5684C150.591 42.0118 148.652 43.7653 145.307 43.7653C141.962 43.7653 139.999 41.9882 139.885 39.1997L139.89 39.195Z" fill="#1E1E1E"/>
<path d="M151.542 37.0494C151.542 32.8997 154.102 30.3428 157.773 30.3428C161.231 30.3428 163.842 32.5547 163.842 36.4727V37.8103H154.201C154.315 40.0694 155.653 41.7047 157.825 41.7047C159.414 41.7047 160.616 40.854 161.08 39.4928H163.71C163.156 42.0072 160.895 43.7559 157.806 43.7559C154.069 43.7559 151.552 41.1754 151.552 37.0494H151.542ZM161.278 35.8725C161.278 33.8213 160.01 32.394 157.839 32.394C155.668 32.394 154.447 33.9158 154.215 35.8725H161.274H161.278Z" fill="#1E1E1E"/>
</g>
<defs>
<clipPath id="clip0_410_1390">
<rect width="179" height="48" fill="white"/>
</clipPath>
</defs>
</svg>
