<svg width="193" height="33" viewBox="0 0 193 33" fill="none" xmlns="http://www.w3.org/2000/svg">
  <path
    d="M24.7801 17.7185C20.8047 17.6996 15.8984 17.6807 15.8984 17.6807V23.9414C15.8984 28.403 19.2354 32.0233 23.3523 32.0233H34.599L31.8251 23.85C30.5608 20.1289 27.812 17.7374 24.7801 17.7216V17.7185Z"
    fill="#FBAF3B" />
  <path
    d="M15.8953 0.511719H23.3428C29.3058 0.511719 33.017 3.76654 33.017 9.41601C33.017 13.9123 30.2745 17.6807 23.3428 17.6807L15.8953 17.7469V0.511719Z"
    fill="#E06500" />
  <path
    d="M15.8952 0.511719V21.531C15.8952 27.9966 12.8948 32.0202 7.6834 32.0202C3.53506 32.0202 0.0629014 29.0458 0.0629014 21.531L0 0.511719H15.8952Z"
    fill="#CC1705" />
  <path
    d="M40.1562 16.4393V9.75635H41.8892V16.3794C41.8892 18.314 43.0088 19.3003 44.4493 19.3003C45.8897 19.3003 47.0251 18.3172 47.0251 16.3794V9.75635H48.7423V16.4393C48.7423 19.2215 46.871 20.756 44.4493 20.756C42.0276 20.756 40.1562 19.2183 40.1562 16.4393Z"
    fill="#1E1E1E" />
  <path
    d="M50.2803 12.0596H51.9063V13.4585H51.9377C52.3529 12.5984 52.8435 12.0596 54.0701 12.0596H54.8972V13.4585H53.809C52.5196 13.4585 51.9377 14.1958 51.9377 15.7019V20.5101H50.2803V12.0596Z"
    fill="#1E1E1E" />
  <path
    d="M57.2434 18.8686H57.2119C57.2277 19.1899 57.2277 19.4672 57.2277 19.7918V20.5133H55.5859V8.51172H57.2434V12.8126C57.2434 13.1214 57.2434 13.3798 57.2119 13.7043H57.2434C57.7655 12.5196 58.8851 11.8138 60.2344 11.8138C62.2126 11.8138 64.0839 13.3514 64.0839 16.2849C64.0839 19.2183 62.2126 20.7559 60.2344 20.7559C58.8851 20.7559 57.7655 20.0501 57.2434 18.8654V18.8686ZM59.7752 19.3916C61.3257 19.3916 62.3353 18.147 62.3353 16.288C62.3353 14.429 61.3225 13.1844 59.7752 13.1844C58.2278 13.1844 57.2277 14.429 57.2277 16.288C57.2277 18.147 58.2404 19.3916 59.7752 19.3916Z"
    fill="#1E1E1E" />
  <path
    d="M67.6126 20.7559C65.9866 20.7559 64.7129 19.8327 64.7129 18.0683C64.7129 16.1463 66.2477 15.409 67.9177 15.409H69.267C70.1098 15.409 70.5093 15.0561 70.5093 14.4416C70.5093 13.5972 69.7419 13.1813 68.7606 13.1813C67.5938 13.1813 66.8138 13.7642 66.7352 14.7945H65.0337C65.1563 12.9828 66.3389 11.8138 68.7449 11.8138C71.1509 11.8138 72.1667 13.0427 72.1667 14.7189V18.5598C72.1667 18.96 72.3208 19.1144 72.7202 19.1144H73.0725V20.5133H71.9686C71.0942 20.5133 70.5879 20.0376 70.5879 19.253V18.8528H70.5564C70.0186 20.1447 68.9304 20.7591 67.6126 20.7591V20.7559ZM68.0435 19.3727C69.3173 19.3727 70.5124 18.5441 70.5124 16.6851V15.8091H70.481C70.2042 16.392 69.6978 16.6693 68.748 16.6851L68.0876 16.7008C66.9207 16.7166 66.4616 17.3152 66.4616 18.0368C66.4616 18.7583 66.9207 19.3727 68.0404 19.3727H68.0435Z"
    fill="#1E1E1E" />
  <path
    d="M74.0097 12.0596H75.6357V13.5027H75.6672C76.1893 12.444 77.1391 11.8138 78.3657 11.8138C80.1143 11.8138 81.2182 13.0427 81.2182 15.3333V20.5102H79.5608V15.5003C79.5608 13.8556 78.8406 13.2097 77.8121 13.2097C76.7239 13.2097 75.664 13.9312 75.664 15.806V20.507H74.0066V12.0596H74.0097Z"
    fill="#1E1E1E" />
  <path
    d="M86.0679 9.75635H90.147C93.1537 9.75635 95.393 11.691 95.393 15.1348C95.393 18.5787 93.1537 20.5133 90.147 20.5133H86.0679V9.75635ZM90.0558 19.0513C92.1095 19.0513 93.5689 17.7311 93.5689 15.1317C93.5689 12.5322 92.1127 11.212 90.0558 11.212H87.8008V19.0482H90.0558V19.0513Z"
    fill="#1E1E1E" />
  <path
    d="M99.0443 20.7559C97.4183 20.7559 96.1445 19.8327 96.1445 18.0683C96.1445 16.1463 97.6793 15.409 99.3494 15.409H100.699C101.541 15.409 101.941 15.0561 101.941 14.4416C101.941 13.5972 101.173 13.1813 100.192 13.1813C99.0254 13.1813 98.2454 13.7642 98.1668 14.7945H96.4653C96.588 12.9828 97.7705 11.8138 100.177 11.8138C102.582 11.8138 103.598 13.0427 103.598 14.7189V18.5598C103.598 18.96 103.752 19.1144 104.152 19.1144H104.504V20.5133H103.4C102.526 20.5133 102.02 20.0376 102.02 19.253V18.8528H101.988C101.45 20.1447 100.362 20.7591 99.0443 20.7591V20.7559ZM99.4752 19.3727C100.749 19.3727 101.944 18.5441 101.944 16.6851V15.8091H101.913C101.636 16.392 101.129 16.6693 100.18 16.6851L99.5192 16.7008C98.3524 16.7166 97.8932 17.3152 97.8932 18.0368C97.8932 18.7583 98.3524 19.3727 99.472 19.3727H99.4752Z"
    fill="#1E1E1E" />
  <path
    d="M105.885 18.251V13.4554H104.228V12.0564H105.885V9.75H107.542V12.0564H110.165V13.4554H107.542V18.1123C107.542 18.8339 107.91 19.1112 108.555 19.1112H110.228V20.5101H108.159C106.671 20.5101 105.888 19.7571 105.888 18.251H105.885Z"
    fill="#1E1E1E" />
  <path
    d="M113.54 20.7559C111.914 20.7559 110.641 19.8327 110.641 18.0683C110.641 16.1463 112.175 15.409 113.845 15.409H115.195C116.038 15.409 116.437 15.0561 116.437 14.4416C116.437 13.5972 115.67 13.1813 114.688 13.1813C113.522 13.1813 112.742 13.7642 112.663 14.7945H110.961C111.084 12.9828 112.267 11.8138 114.673 11.8138C117.079 11.8138 118.094 13.0427 118.094 14.7189V18.5598C118.094 18.96 118.249 19.1144 118.648 19.1144H119V20.5133H117.896C117.022 20.5133 116.516 20.0376 116.516 19.253V18.8528H116.484C115.946 20.1447 114.858 20.7591 113.54 20.7591V20.7559ZM113.971 19.3727C115.245 19.3727 116.44 18.5441 116.44 16.6851V15.8091H116.409C116.132 16.392 115.626 16.6693 114.676 16.6851L114.015 16.7008C112.848 16.7166 112.389 17.3152 112.389 18.0368C112.389 18.7583 112.848 19.3727 113.968 19.3727H113.971Z"
    fill="#1E1E1E" />
  <path
    d="M124 9.79041H128.324C130.778 9.79041 132.174 10.9751 132.174 12.7238C132.174 14.1228 131.3 15.1374 129.721 15.443V15.4745C131.01 15.9661 131.501 16.9334 131.885 18.3166L132.498 20.5442H130.718L130.227 18.6695C129.737 16.7191 129.183 16.2276 127.45 16.2276H125.733V20.5442H124V9.79041ZM127.589 14.7845C129.428 14.7845 130.381 14.1386 130.381 12.9413C130.381 11.8826 129.614 11.2524 128.158 11.2524H125.733V14.7876H127.589V14.7845Z"
    fill="#1E1E1E" />
  <path
    d="M132.803 16.319C132.803 13.5525 134.504 11.8479 136.945 11.8479C139.247 11.8479 140.98 13.3225 140.98 15.9345V16.8262H134.57C134.646 18.3323 135.536 19.4225 136.979 19.4225C138.036 19.4225 138.835 18.8554 139.143 17.9479H140.892C140.524 19.6242 139.021 20.79 136.967 20.79C134.482 20.79 132.809 19.0696 132.809 16.319H132.803ZM139.275 15.5344C139.275 14.1669 138.432 13.2154 136.989 13.2154C135.545 13.2154 134.734 14.2299 134.58 15.5344H139.272H139.275Z"
    fill="#1E1E1E" />
  <path
    d="M141.578 17.7495H143.295C143.342 18.9184 144.094 19.4257 145.182 19.4257C146.27 19.4257 146.946 18.8869 146.946 18.0425C146.946 17.3525 146.503 16.905 145.412 16.905H144.49C142.742 16.905 141.729 15.9535 141.729 14.5387C141.729 12.9854 142.971 11.8511 145.088 11.8511C147.204 11.8511 148.462 13.0484 148.538 14.8318H146.836C146.789 13.8014 146.207 13.2185 145.103 13.2185C144.091 13.2185 143.462 13.6943 143.462 14.4631C143.462 15.1689 143.968 15.4935 144.795 15.4935H145.792C147.755 15.4935 148.692 16.5994 148.692 17.9984C148.692 19.6274 147.403 20.7963 145.179 20.7963C142.955 20.7963 141.65 19.6116 141.575 17.7526L141.578 17.7495Z"
    fill="#1E1E1E" />
  <path
    d="M149.814 12.0937H151.472V12.8467C151.472 13.1555 151.472 13.4139 151.44 13.7384H151.472C151.994 12.5537 153.114 11.8479 154.463 11.8479C156.441 11.8479 158.312 13.3855 158.312 16.319C158.312 19.2524 156.441 20.79 154.463 20.79C153.114 20.79 151.994 20.0842 151.472 18.8995H151.44C151.472 19.2209 151.472 19.4982 151.472 19.8227V23.6195H149.814V12.0937ZM154.001 19.4225C155.551 19.4225 156.561 18.178 156.561 16.319C156.561 14.46 155.548 13.2154 154.001 13.2154C152.453 13.2154 151.453 14.46 151.453 16.319C151.453 18.178 152.466 19.4225 154.001 19.4225Z"
    fill="#1E1E1E" />
  <path
    d="M159.033 16.319C159.033 13.4454 160.905 11.8479 163.266 11.8479C165.628 11.8479 167.5 13.4454 167.5 16.319C167.5 19.1925 165.613 20.79 163.266 20.79C160.92 20.79 159.033 19.1925 159.033 16.319ZM163.266 19.4225C164.694 19.4225 165.751 18.3639 165.751 16.319C165.751 14.2741 164.694 13.2154 163.266 13.2154C161.839 13.2154 160.782 14.2741 160.782 16.319C160.782 18.3639 161.839 19.4225 163.266 19.4225Z"
    fill="#1E1E1E" />
  <path
    d="M168.607 12.0937H170.233V13.5368H170.264C170.786 12.4781 171.736 11.8479 172.963 11.8479C174.711 11.8479 175.815 13.0767 175.815 15.3674V20.5442H174.158V15.5344C174.158 13.8897 173.437 13.2437 172.409 13.2437C171.321 13.2437 170.261 13.9653 170.261 15.84V20.5411H168.604V12.0905L168.607 12.0937Z"
    fill="#1E1E1E" />
  <path
    d="M176.843 17.7495H178.561C178.608 18.9184 179.36 19.4257 180.448 19.4257C181.536 19.4257 182.212 18.8869 182.212 18.0425C182.212 17.3525 181.769 16.905 180.677 16.905H179.756C178.007 16.905 176.994 15.9535 176.994 14.5387C176.994 12.9854 178.237 11.8511 180.353 11.8511C182.47 11.8511 183.728 13.0484 183.804 14.8318H182.102C182.055 13.8014 181.473 13.2185 180.369 13.2185C179.356 13.2185 178.727 13.6943 178.727 14.4631C178.727 15.1689 179.234 15.4935 180.061 15.4935H181.058C183.02 15.4935 183.958 16.5994 183.958 17.9984C183.958 19.6274 182.668 20.7963 180.445 20.7963C178.221 20.7963 176.916 19.6116 176.84 17.7526L176.843 17.7495Z"
    fill="#1E1E1E" />
  <path
    d="M184.59 16.319C184.59 13.5525 186.291 11.8479 188.732 11.8479C191.031 11.8479 192.767 13.3225 192.767 15.9345V16.8262H186.357C186.433 18.3323 187.323 19.4225 188.766 19.4225C189.823 19.4225 190.622 18.8554 190.93 17.9479H192.679C192.311 19.6242 190.808 20.79 188.754 20.79C186.269 20.79 184.596 19.0696 184.596 16.319H184.59ZM191.062 15.5344C191.062 14.1669 190.22 13.2154 188.776 13.2154C187.332 13.2154 186.521 14.2299 186.367 15.5344H191.059H191.062Z"
    fill="#1E1E1E" />
</svg>